<?xml version="1.0" standalone="no"?>
<!DOCTYPE svg PUBLIC "-//W3C//DTD SVG 20010904//EN"
 "http://www.w3.org/TR/2001/REC-SVG-20010904/DTD/svg10.dtd">
<svg version="1.0" xmlns="http://www.w3.org/2000/svg"
 width="256.000000pt" height="256.000000pt" viewBox="0 0 256.000000 256.000000"
 preserveAspectRatio="xMidYMid meet">
<metadata>
Created by potrace 1.11, written by Peter Selinger 2001-2013
</metadata>
<g transform="translate(0.000000,256.000000) scale(0.100000,-0.100000)"
fill="#000000" stroke="none">
<path d="M0 1280 l0 -960 1280 0 1280 0 0 960 0 960 -1280 0 -1280 0 0 -960z
m320 640 l0 -160 -80 0 -80 0 0 160 0 160 80 0 80 0 0 -160z m1760 -640 l0
-800 -800 0 -800 0 0 800 0 800 800 0 800 0 0 -800z m320 640 l0 -160 -80 0
-80 0 0 160 0 160 80 0 80 0 0 -160z m-2080 -640 l0 -160 -80 0 -80 0 0 160 0
160 80 0 80 0 0 -160z m2080 0 l0 -160 -80 0 -80 0 0 160 0 160 80 0 80 0 0
-160z m-2080 -640 l0 -160 -80 0 -80 0 0 160 0 160 80 0 80 0 0 -160z m2080 0
l0 -160 -80 0 -80 0 0 160 0 160 80 0 80 0 0 -160z"/>
<path d="M800 1280 l0 -480 475 237 c261 131 475 240 475 243 0 3 -214 112
-475 243 l-475 237 0 -480z"/>
</g>
</svg>
